<svg width="657" height="321" viewBox="164 195 657 321" xmlns="http://www.w3.org/2000/svg" role="img" aria-label="Zone Equip chargeuse">
  <rect x="40" y="498" width="820" height="6" rx="3" fill="#d8d6d0"></rect>
  
  <g>
    <path d="M 180 310 Q 176 296 192 294 L 330 294 L 330 400 L 196 400 Q 180 400 180 384 Z" fill="#f2a900" stroke="#2b2b2b" stroke-width="6"></path>
    <line x1="198" y1="310" x2="236" y2="310" stroke="#2b2b2b" stroke-width="4"></line>
    <line x1="198" y1="324" x2="236" y2="324" stroke="#2b2b2b" stroke-width="4"></line>

    <text x="285" y="316" text-anchor="middle" font-family="Arial Black, Arial, sans-serif" font-size="14" font-weight="900" fill="#e1161c" letter-spacing="0.5">ZONE</text>
    <text x="285" y="331" text-anchor="middle" font-family="Arial Black, Arial, sans-serif" font-size="14" font-weight="900" fill="#0c62af" letter-spacing="0.5">EQUIP</text>
    
    <rect x="240" y="240" width="14" height="58" rx="5" fill="#2b2b2b"></rect>
  </g>
  
  <g>
    <rect x="330" y="210" width="130" height="190" rx="12" fill="#f2a900" stroke="#2b2b2b" stroke-width="6"></rect>
    <rect x="344" y="224" width="102" height="66" rx="8" fill="#bfe0e8" stroke="#2b2b2b" stroke-width="5"></rect>
    <line x1="395" y1="224" x2="395" y2="290" stroke="#2b2b2b" stroke-width="5"></line>
    
    <rect x="344" y="300" width="102" height="28" rx="6" fill="#ffffff" stroke="#2b2b2b" stroke-width="4"></rect>
    <text data-max-width="94" id="machine-number-cab" data-machine-number="CHG-2026-0001" x="395" y="320" text-anchor="middle" font-family="Arial Black, Arial, sans-serif" font-size="18" font-weight="900" fill="#0c62af">CHG-2026-0001</text>
  </g>
  
  <path d="M 460 320 L 560 320 L 560 400 L 460 400 Z" fill="#f2a900" stroke="#2b2b2b" stroke-width="6"></path>
  
  <text data-max-width="132" id="machine-number" data-machine-number="CHG-2026-0001" x="255" y="367" text-anchor="middle" font-family="Arial Black, Arial, sans-serif" font-size="34" font-weight="900" fill="#0c62af">CHG-2026-0001</text>
  
  <g>
    <path d="M 545 330 L 690 396 L 678 420 L 535 356 Z" fill="#f2a900" stroke="#2b2b2b" stroke-width="6"></path>
    <path d="M 560 300 L 655 372" stroke="#8b8b8b" stroke-width="14" stroke-linecap="round"></path>
    <path d="M 615 342 L 655 372" stroke="#555" stroke-width="9" stroke-linecap="round"></path>
    
    <path d="M 676 388 Q 700 358 742 356 L 800 358 L 806 470 L 690 470 Q 668 430 676 388 Z" fill="#f2a900" stroke="#2b2b2b" stroke-width="6"></path>
    <path d="M 806 470 L 690 470 L 694 488 L 810 488 Z" fill="#666"></path>
    <circle cx="682" cy="406" r="11" fill="#2b2b2b"></circle><circle cx="682" cy="406" r="4" fill="#999"></circle>
  </g>
  
  <g>
    <circle cx="290" cy="435" r="62" fill="#2b2b2b"></circle><circle cx="290" cy="435" r="34" fill="#8b8b8b"></circle><circle cx="290" cy="435" r="12" fill="#2b2b2b"></circle>
    <circle cx="590" cy="435" r="62" fill="#2b2b2b"></circle><circle cx="590" cy="435" r="34" fill="#8b8b8b"></circle><circle cx="590" cy="435" r="12" fill="#2b2b2b"></circle>
  </g>
</svg>