<svg width="684" height="363" viewBox="145 155 684 363" xmlns="http://www.w3.org/2000/svg" role="img" aria-label="Zone Equip excavator">
  
  <rect x="40" y="500" width="820" height="6" rx="3" fill="#d8d6d0"></rect>
  
  <g stroke-linejoin="round">
    
    <path d="M 470 330 L 620 170 L 660 195 L 520 355 Z" fill="#f2a900" stroke="#2b2b2b" stroke-width="6"></path>
    
    <path d="M 622 176 L 760 300 L 730 330 L 600 210 Z" fill="#f2a900" stroke="#2b2b2b" stroke-width="6"></path>
    
    <path d="M 520 300 L 610 240" stroke="#8b8b8b" stroke-width="16" stroke-linecap="round"></path>
    <path d="M 560 274 L 610 240" stroke="#555" stroke-width="10" stroke-linecap="round"></path>
    
    <path d="M 640 200 L 715 275" stroke="#8b8b8b" stroke-width="14" stroke-linecap="round"></path>
    <path d="M 682 242 L 715 275" stroke="#555" stroke-width="9" stroke-linecap="round"></path>
    
    <circle cx="618" cy="182" r="14" fill="#2b2b2b"></circle>
    <circle cx="618" cy="182" r="6" fill="#999"></circle>
    <circle cx="742" cy="312" r="12" fill="#2b2b2b"></circle>
    <circle cx="742" cy="312" r="5" fill="#999"></circle>
    
    <path d="M 742 312 L 800 330 L 812 400 L 745 415 L 720 360 Z" fill="#2b2b2b" stroke="#2b2b2b" stroke-width="6"></path>
    <path d="M 812 400 L 745 415 L 750 432 L 818 418 Z" fill="#666"></path>
  </g>
  
  <g>
    <rect x="180" y="290" width="320" height="120" rx="14" fill="#f2a900" stroke="#2b2b2b" stroke-width="6"></rect>
    
    <rect x="160" y="310" width="60" height="100" rx="10" fill="#f2a900" stroke="#2b2b2b" stroke-width="6"></rect>
    
    
    <text transform="rotate(-90 179 360)" x="179" y="366" text-anchor="middle" font-family="Arial Black, Arial, sans-serif" font-size="18" font-weight="900" fill="#e1161c" letter-spacing="0.5">ZONE</text>
    <text transform="rotate(-90 203 360)" x="203" y="366" text-anchor="middle" font-family="Arial Black, Arial, sans-serif" font-size="18" font-weight="900" fill="#0c62af" letter-spacing="0.5">EQUIP</text>
    
    <text data-max-width="250" id="machine-number" data-machine-number="EX-01" x="360" y="398" text-anchor="middle" font-family="Arial Black, Arial, sans-serif" font-size="42" font-weight="900" fill="#0c62af">EX-01</text>
    
    <rect x="420" y="210" width="120" height="130" rx="12" fill="#f2a900" stroke="#2b2b2b" stroke-width="6"></rect>
    <rect x="432" y="222" width="96" height="70" rx="8" fill="#bfe0e8" stroke="#2b2b2b" stroke-width="5"></rect>
    <line x1="480" y1="222" x2="480" y2="292" stroke="#2b2b2b" stroke-width="5"></line>
    
    <rect x="432" y="302" width="96" height="30" rx="6" fill="#ffffff" stroke="#2b2b2b" stroke-width="4"></rect>
    <text data-max-width="88" id="machine-number-cab" data-machine-number="EX-01" x="480" y="325" text-anchor="middle" font-family="Arial Black, Arial, sans-serif" font-size="20" font-weight="900" fill="#0c62af">EX-01</text>
  </g>
  
  <g>
    <rect x="300" y="405" width="40" height="30" fill="#2b2b2b"></rect>
    <rect x="200" y="430" width="330" height="66" rx="33" fill="#2b2b2b"></rect>
    <rect x="212" y="442" width="306" height="42" rx="21" fill="#4a4a4a"></rect>
    <circle cx="240" cy="463" r="18" fill="#8b8b8b"></circle>
    <circle cx="240" cy="463" r="8" fill="#2b2b2b"></circle>
    <circle cx="490" cy="463" r="18" fill="#8b8b8b"></circle>
    <circle cx="490" cy="463" r="8" fill="#2b2b2b"></circle>
    <circle cx="315" cy="463" r="10" fill="#8b8b8b"></circle>
    <circle cx="365" cy="463" r="10" fill="#8b8b8b"></circle>
    <circle cx="415" cy="463" r="10" fill="#8b8b8b"></circle>
  </g>

</svg>